<svg id="status-almost-done" xmlns:rdf="http://www.w3.org/1999/02/22-rdf-syntax-ns#" xmlns="http://www.w3.org/2000/svg" xml:space="preserve" height="100" width="100" version="1.2" y="0px" x="0px" xmlns:cc="http://creativecommons.org/ns#" xmlns:dc="http://purl.org/dc/elements/1.1/" viewBox="0 0 100 100">
    <path d="m97.95 79.758h-21.9c-0.6-2.8-3.1-5-6.1-5-0.7 0-1.5 0.1-2.1 0.4-0.4-3-3-5.4-6.2-5.4-0.7 0-1.5 0.1-2.1 0.4-0.3-2-1.6-3.8-3.4-4.7 0.1-0.4 0.1-0.7 0.1-1.1 0-2.3-1.2-4.3-3.1-5.4 0.3-1.3 0.9-3.6 2.2-6.3 0.7 0.5 1.4 0.9 2.2 1.2 1.1 0.4 2.2 0.6 3.3 0.6 1.3 0 2.5-0.3 3.7-0.8 2.6-1.2 4.6-3.6 5.2-6.4 2.1-7.4 10.9-9.3 11-9.4 0.6-0.1 1-0.6 1-1.2s-0.4-1.1-1-1.2c-0.5-0.1-13.1-3.1-23.6 1.6-0.1 0-0.1 0.1-0.2 0.1-0.2-2.6-1.3-5-3.2-7-10.4-10.2-26.5-12.5-27.2-12.5-0.6-0.1-1.1 0.3-1.3 0.8s0 1.2 0.5 1.5c0.1 0.1 9.9 6.5 8.9 16.5v0.1c-0.6 3.5 0.6 7.2 3.2 9.7 2.2 2.2 5.1 3.3 8 3.3 1.2 0 2.3-0.2 3.5-0.6 0.5 4.3 0 7.8-0.3 9.4-3 0.5-5.2 3.1-5.2 6.2v0.5c-2.6 0.5-4.6 2.6-5 5.3-0.7-0.2-1.4-0.4-2.1-0.4-3 0-5.6 2.2-6.1 5-3.2-0.3-6 2-6.7 5h-22c-0.7 0-1.2 0.6-1.2 1.2s0.6 1.2 1.2 1.2h23c0.7 0 1.2-0.6 1.2-1.2 0-2.1 1.7-3.8 3.8-3.8 0.4 0 0.8 0.1 1.3 0.2 0.4 0.1 0.8 0.1 1.2-0.2 0.3-0.3 0.5-0.7 0.5-1.1v-0.2c0-2.1 1.7-3.8 3.8-3.8 1 0 2 0.4 2.7 1.2 0.4 0.4 1 0.5 1.5 0.2s0.7-0.9 0.5-1.5c-0.1-0.4-0.2-0.8-0.2-1.2 0-2.1 1.7-3.7 3.8-3.7h0.2c0.4 0 0.8-0.2 1.1-0.5s0.3-0.8 0.2-1.2c-0.2-0.4-0.2-0.9-0.2-1.3 0-2.1 1.7-3.8 3.8-3.8 0.4 0 0.7 0.1 1 0.2l0.6 0.3h0.1c1.2 0.6 2.1 1.9 2.1 3.3 0 0.5-0.1 0.9-0.3 1.4-0.1 0.3-0.1 0.7 0 1 0.2 0.3 0.4 0.6 0.8 0.6 1.6 0.4 2.8 1.9 2.8 3.6 0 0.4-0.1 0.7-0.2 1.2-0.2 0.6 0 1.2 0.5 1.5s1.1 0.2 1.5-0.2c0.7-0.7 1.7-1.2 2.7-1.2 2.1 0 3.8 1.7 3.8 3.8 0 0.4-0.1 0.7-0.2 1.2-0.2 0.6 0 1.2 0.5 1.5s1.1 0.2 1.5-0.2c0.7-0.7 1.7-1.2 2.7-1.2 2.1 0 3.8 1.7 3.8 3.8 0 0.7 0.6 1.2 1.2 1.2h23c0.7 0 1.2-0.6 1.2-1.2s-0.6-1.3-1.3-1.3zm-46-25.6c0.1-1.8 0-4-0.3-6.4 0.1-0.1 0.2-0.1 0.3-0.2 0.1 0.5 0.3 1.1 0.5 1.6 0.3 0.6 0.6 1.2 1 1.7-0.6 1.1-1.1 2.2-1.5 3.3z"/>
</svg>
