<?xml version="1.0" encoding="UTF-8" standalone="no"?>
<svg id="status-done" xmlns:rdf="http://www.w3.org/1999/02/22-rdf-syntax-ns#" xmlns="http://www.w3.org/2000/svg" xml:space="preserve" height="100" width="100" version="1.2" y="0px" x="0px" xmlns:cc="http://creativecommons.org/ns#" xmlns:dc="http://purl.org/dc/elements/1.1/" viewBox="0 0 100 100"><path d="m98 66h-37.2c0.3-1.3 0.5-2.5 0.5-3.6 0-5.7-4.3-10.4-9.8-11.1 0.7-3.7 3.2-14.8 10.2-23h0.8c2.2 0 6.4-0.1 10.9-0.7 8.9-1.1 14.6-3.5 16.8-7.1 1.5-2.5 1.5-5.4-0.3-8.7-1.7-3.1-3.9-4.8-6.8-5-9.6-0.4-22.1 17.9-23.1 19.5-0.1 0.1-0.2 0.3-0.2 0.5-4.2 4.9-6.8 10.7-8.5 15.5v-6.6c0.6-1.2 3.1-5.7 5.1-11 3.1-8.4 3.6-14.6 1.4-18.2-1.5-2.5-4.1-3.8-7.8-3.8-3.6 0-6.1 1.2-7.5 3.7-4.8 8 4.9 26.7 6.3 29.3v10.7c-1.5-2.6-3.7-5.7-6.9-8.2 0-0.1-0.1-0.1-0.1-0.2 0 0 0-0.1-0.1-0.1-0.2-0.2-4.2-4.2-9.4-8.1-7.2-5.3-13-7.5-17.1-6.5-2.8 0.7-4.8 2.9-5.8 6.5-1 3.4-0.5 6.2 1.5 8.3 2.8 2.9 8.3 3.8 13.8 3.8 6.8 0 13.7-1.3 15.8-1.8 4.8 3.8 7.1 8.7 7.9 11.1-5.4 0.8-9.6 5.5-9.6 11.1 0 1.1 0.2 2.3 0.5 3.6h-37.3c-0.7 0-1.2 0.6-1.2 1.2s0.6 1.2 1.2 1.2h37.7 0.2c1.6 4.8 4.8 9.9 8.9 10.7v8.4s-0.1 0-0.1 0.1l-3.1 2.7c-0.5 0.5-0.6 1.2-0.1 1.8 0.2 0.3 0.6 0.4 0.9 0.4s0.6-0.1 0.8-0.3l1.6-1.4v5.4c0 0.7 0.6 1.2 1.2 1.2s1.2-0.6 1.2-1.2v-10.6l2.9 1.5c0.2 0.1 0.4 0.1 0.6 0.1 0.4 0 0.9-0.2 1.1-0.7 0.3-0.6 0.1-1.4-0.5-1.7l-4.1-2.1v-3.5c4-0.9 7.2-5.9 8.9-10.7h0.2 37.7c0.7 0 1.2-0.6 1.2-1.2s-0.5-1.2-1.2-1.2zm-45.8 6.2h-6.2c-0.7 0-1.2-0.6-1.2-1.2s0.6-1.2 1.2-1.2h6.2c0.7 0 1.2 0.6 1.2 1.2s-0.5 1.2-1.2 1.2zm5-7.3h-9.5c-0.7 0-1.2-0.6-1.2-1.2s0.6-1.2 1.2-1.2h9.5c0.7 0 1.2 0.6 1.2 1.2s-0.5 1.2-1.2 1.2z"/></svg>
