<svg id="status-expired" xmlns:rdf="http://www.w3.org/1999/02/22-rdf-syntax-ns#" xmlns="http://www.w3.org/2000/svg" xml:space="preserve" height="100" width="100" version="1.2" y="0px" x="0px" xmlns:cc="http://creativecommons.org/ns#" xmlns:dc="http://purl.org/dc/elements/1.1/" viewBox="0 0 100 100"><path d="m89.044 32.526h-5c-0.7 0-1.2 0.6-1.2 1.2v1.1c-1.1-1.2-2.7-1.9-4.5-1.9-0.7 0-1.5 0.1-2.1 0.4-0.3-2-1.6-3.8-3.4-4.7 0.1-0.4 0.1-0.7 0.1-1.1 0-3.4-2.8-6.2-6.2-6.2s-6.2 2.8-6.2 6.2v0.5c-0.5 0.1-1 0.3-1.5 0.5-0.8-0.4-1.7-0.6-2.7-0.6-0.7 0-1.5 0.1-2.1 0.4-0.3-2-1.6-3.8-3.4-4.7 0.1-0.4 0.1-0.7 0.1-1.1 0-3.4-2.8-6.2-6.2-6.2-2.1 0-4.1 1.1-5.2 2.8-1.3-0.7-2.9-1.1-4.4-1.1-0.9 0-1.7 0.1-2.5 0.4-0.4-4.4 0.4-7.6 0.4-7.7 0-0.8-0.4-1.5-1.1-1.7s-1.3 0.2-1.5 0.9c-0.1 0.3-1.1 4.3-0.4 9.4-0.6 0.4-1.1 0.8-1.5 1.2-1.7 1.7-2.7 4.1-2.7 6.5 0 1.1 0.2 2.2 0.6 3.2-0.6 0.8-1 1.7-1.2 2.6-3.4-0.3-6.4 2.2-6.7 5.5h22.2c-4.2-1.7-7.7-4-10.4-6.6l-0.5-0.5s0-0.1-0.1-0.1c-0.1-0.2-0.2-0.3-0.4-0.5v-0.1l-0.3-0.6-0.3-0.6c-0.3-0.7-0.4-1.5-0.4-2.3 0-1.8 0.7-3.5 2-4.7l0.3-0.3c0.9 3.7 2.8 7.8 6.4 11.4 0.2 0.2 0.6 0.4 0.9 0.4s0.6-0.1 0.9-0.4c0.5-0.5 0.5-1.3 0-1.8-3.5-3.5-5.1-7.4-5.9-11 0.7-0.2 1.4-0.4 2.2-0.4 1 0 1.9 0.2 2.8 0.6 0.4 0.2 0.7 0.4 1 0.6s0.6 0.5 0.9 0.7c1.5 1.5 2.2 3.7 1.9 5.9v0.2c-0.4 4.1 1.2 7.5 3 10h38.2v2.8h-65.7v-7.2c0-0.7-0.6-1.2-1.2-1.2h-5c-0.7 0-1.2 0.6-1.2 1.2v56c0 0.7 0.6 1.2 1.2 1.2h5c0.7 0 1.2-0.6 1.2-1.2h65.5c0 0.7 0.6 1.2 1.2 1.2h5c0.7 0 1.2-0.6 1.2-1.2v-56c0.1-0.7-0.4-1.3-1.1-1.3zm-6.2 26v2.5h-65.6v-2.5h65.6zm0 20v2.5h-65.6v-2.5h65.6z"/></svg>
