<?xml version="1.0" encoding="UTF-8" standalone="no"?>
<svg id="status-in-progress" xmlns:rdf="http://www.w3.org/1999/02/22-rdf-syntax-ns#" xmlns="http://www.w3.org/2000/svg" xml:space="preserve" height="100" width="100" version="1.2" y="0px" x="0px" xmlns:cc="http://creativecommons.org/ns#" xmlns:dc="http://purl.org/dc/elements/1.1/" viewBox="0 0 100 100"><g transform="translate(0 -.025)"><path d="m98 60.9h-33c-0.7 0-1.2 0.6-1.2 1.2 0 7.9-6.5 24.8-13.8 24.8s-13.8-16.8-13.8-24.8c0-0.7-0.6-1.2-1.2-1.2h-33c-0.7 0-1.2 0.6-1.2 1.2s0.6 1.2 1.2 1.2h31.8c0.3 4.4 2 10.4 4.5 15.4 3.4 6.8 7.6 10.6 11.7 10.6s8.3-3.8 11.7-10.6c2.5-5 4.2-11 4.5-15.4h31.8c0.7 0 1.2-0.6 1.2-1.2s-0.5-1.2-1.2-1.2z"/><path d="m45.8 78.9c0 2.3 1.9 4.2 4.2 4.2s4.2-1.9 4.2-4.2-1.9-4.2-4.2-4.2-4.2 1.8-4.2 4.2z"/><path d="m59 68.1c0-2.3-1.9-4.2-4.2-4.2s-4.2 1.9-4.2 4.2 1.9 4.2 4.2 4.2 4.2-1.8 4.2-4.2z"/><path d="m44 74.9c2.3 0 4.2-1.9 4.2-4.2s-1.9-4.2-4.2-4.2-4.2 1.9-4.2 4.2 1.8 4.2 4.2 4.2z"/><path d="m50 41.4c5.7 0 9.2-2.9 9.2-7.6 0-11.8-7.9-22.2-8.3-22.6-0.5-0.6-1.5-0.6-2 0-0.3 0.4-8.3 10.9-8.3 22.6 0.2 4.6 3.7 7.6 9.4 7.6z"/></g></svg>
