<svg id="status-problematic" xmlns:rdf="http://www.w3.org/1999/02/22-rdf-syntax-ns#" xmlns="http://www.w3.org/2000/svg" xml:space="preserve" height="100" width="100" version="1.2" y="0px" x="0px" xmlns:cc="http://creativecommons.org/ns#" xmlns:dc="http://purl.org/dc/elements/1.1/" viewBox="0 0 100 100"><g transform="translate(-2.0316 .1)"><path d="m61.7 40.5c-0.6 0.3-1 0.9-1.1 1.7-0.8-0.3-1.5-0.2-2.1 0.1-0.2 0.1-0.3 0.2-0.5 0.4-0.5-0.3-1.1-0.5-1.6-0.4-0.3 0-0.5 0.1-0.7 0.3-0.2-0.1-0.4-0.2-0.6-0.2-1.1-0.2-2.1 0.5-2.8 1.5-0.7-0.8-1.6-1.4-2.6-1.2-1.1 0.2-1.8 1.2-2.2 2.3-1-0.6-2-0.8-2.9-0.3s-1.2 1.6-1.2 2.7c-1.2-0.3-2.4-0.2-3.1 0.6s-0.6 1.8-0.3 2.9c-1.2 0.2-2.3 0.6-2.7 1.7-0.1 0.2-0.1 0.4-0.1 0.6-0.2 0.1-0.4 0.3-0.6 0.5-0.4 0.4-0.5 0.9-0.5 1.6-0.2 0-0.4 0.1-0.5 0.2-2.2 1.3-0.9 5.9-0.2 7.2 0.7 1.2 1.9 1.9 3.2 1.9 0.6 0 1.2-0.2 1.8-0.5 1-0.6 1.7-1.6 1.9-2.8 0.7-0.2 1.4-0.6 1.9-1.2s0.8-1.4 0.9-2.2c0.7-0.4 1.3-1.1 1.6-1.9 0.1-0.2 0.2-0.5 0.2-0.7 0.4-0.2 0.8-0.5 1.1-0.9 0.2-0.2 0.3-0.5 0.5-0.7 0.4-0.1 0.9-0.2 1.3-0.4s0.7-0.5 1-0.8h0.8c0.5-0.1 0.9-0.2 1.3-0.5 0.2 0.1 0.5 0.2 0.7 0.2 0.9 0.2 1.7 0 2.5-0.4 0.7 0.4 1.5 0.5 2.3 0.4s1.4-0.5 2-1l-0.6 4.1c-0.1 0.5 0.2 1.1 0.7 1.3l2.8 1.3 0.1 1.8c0 0.4 0.2 0.8 0.6 1s0.8 0.2 1.2 0l3-1.5 1.7 2.6c0.2 0.3 0.6 0.5 1 0.6h0.1c0.4 0 0.7-0.2 1-0.5l3.6-4.5 3.1-3.3c0.3-0.3 0.4-0.7 0.3-1-0.1-0.4-0.3-0.7-0.6-0.9-0.1-0.1-2.6-1.6-1.4-4.3 0.8-1.7 0.4-2.8-0.1-3.4-1.2-1.6-3.9-1.5-5-1.3l-0.3-0.9c-0.6-1-1.8-2.1-3-2.5l0.3-1.1c0.2-0.7-0.2-1.4-0.9-1.5-0.7-0.2-1.4 0.2-1.5 0.9l-0.5 1.8c-0.4 0.2-0.7 0.6-1 1-1.8-0.9-2.8-0.7-3.3-0.4zm9.6 5.1h0.2c1.3-0.2 2.7 0 3 0.3 0 0 0.1 0.3-0.2 0.9-1.4 2.9-0.2 5.3 1.2 6.6l-2.2 2.4-2.7 3.2-1.4-2c-0.3-0.5-1-0.7-1.6-0.4l-2.2 1.1v-0.7c0-0.5-0.3-0.9-0.7-1.1l-2.7-1.3 0.5-3.4c0.3-0.1 0.6-0.2 0.8-0.3 0.6-0.3 1-0.8 1.4-1.3 0.7 0 1.3-0.2 1.8-0.5 0.6-0.3 1-0.8 1.3-1.3 0.6 0 1.3-0.2 1.8-0.5 0.8-0.4 1.3-1 1.7-1.7z"/><path d="m70.309 18.7c-8.4-10.2-17.5-17.4-17.6-17.4-0.5-0.4-1.1-0.4-1.5 0-0.1 0.1-9.4 7.4-18 17.9-0.3 0.3-0.3 0.7-0.2 1.1l1.1 3.9c0.1 0.3 0.3 0.6 0.6 0.8l1.7 0.9-2 1.7c-0.3 0.3-0.4 0.6-0.4 1s0.2 0.7 0.5 1l1.7 1.2-1.8 1.1c-0.3 0.2-0.5 0.4-0.6 0.8l-0.6 2.2-1.8-2c-0.4-0.5-1.2-0.6-1.7-0.1l-0.7 0.6c-0.1-0.3-0.3-0.7-0.4-1 0.4-0.7 0.6-1.4 0.6-2.2s-0.2-1.6-0.6-2.2c0.4-0.6 0.6-1.4 0.6-2.2 0-2.3-1.9-4.2-4.2-4.2-1.3 0-3.2 0.6-4.5 1.8l-1-1.4c-0.5-0.5-1.3-0.5-1.8 0s-0.5 1.3 0 1.8l1.7 1.7v0.1c0 0.6 0.2 1.2 0.6 1.7-1.3 0.8-2 1.7-2 2.7 0 0.8 0.4 1.6 1.3 2.2-0.8 0.7-1.3 1.4-1.3 2.2 0 0.3 0.1 0.6 0.2 0.8-0.7 0.3-1.2 0.8-1.4 1.4-0.1 0.3-0.2 0.6-0.1 1-0.2 0.1-0.5 0.3-0.6 0.5-0.9 1-0.6 2.5 0 3.9-1.3 0.2-2.5 0.7-2.9 1.9-0.5 1.3 0.3 2.6 1.3 3.6-1.2 0.7-2.2 1.6-2.2 2.8s1 2.2 2.2 2.8c-1 1-1.8 2.4-1.3 3.6 0.4 1.1 1.6 1.7 2.9 1.9-0.6 1.3-0.9 2.8 0 3.9 0.2 0.2 0.4 0.4 0.6 0.5 0 0.3 0 0.7 0.1 1 0.2 0.6 0.7 1.1 1.4 1.4-0.1 0.3-0.2 0.5-0.2 0.8 0 2.9 5.5 4.2 7.1 4.2 0.3 0 0.6 0 0.9-0.1 5.3 6 13.6 11 24.7 15.1v12.2c0 0.7 0.6 1.2 1.2 1.2s1.2-0.6 1.2-1.2v-12.1-0.1c19-7 29.6-16.8 31.7-29.3 1.8-10.9-3.1-23.5-14.5-37.4zm12.1 37.1c-1.9 11.6-12.1 20.8-30.4 27.5-10.6-3.9-18.6-8.6-23.7-14.2 0.7-0.7 1.1-1.7 1.1-2.8 0-1.4-0.7-2.7-1.9-3.5 0.2-0.8 0.2-1.8-0.1-2.6-0.3-0.9-0.9-1.6-1.7-2.1 0-1-0.3-2-1-2.8-0.2-0.2-0.4-0.5-0.7-0.7 0-0.6 0-1.1-0.2-1.7-0.1-0.3-0.3-0.7-0.5-1 0.2-0.5 0.3-1 0.3-1.6 0-0.5-0.1-1.1-0.3-1.6 0.2-0.3 0.4-0.6 0.5-1 0.2-0.5 0.3-1.1 0.2-1.7 0.3-0.2 0.5-0.4 0.7-0.7 0.7-0.8 1-1.8 1-2.8 0.8-0.5 1.4-1.2 1.7-2.1s0.3-1.8 0.1-2.6c0.6-0.4 1-0.9 1.3-1.5 0.2 0 0.4-0.1 0.6-0.2l1.1-0.9 2.5 2.8c0.3 0.3 0.8 0.5 1.2 0.4s0.8-0.5 0.9-0.9l1-3.9 3-1.8c0.4-0.2 0.6-0.6 0.6-1s-0.2-0.8-0.5-1.1l-2-1.4 2.1-1.9c0.3-0.3 0.5-0.7 0.4-1.1 0-0.4-0.3-0.8-0.7-1l-2.6-1.3-0.8-2.8c6.8-8.3 14-14.5 16.4-16.4 5.1 4.3 34 29.4 30.4 52z"/></g></svg>
