<?xml version="1.0" encoding="UTF-8" standalone="no"?>
<svg id="status-successful" xmlns:rdf="http://www.w3.org/1999/02/22-rdf-syntax-ns#" xmlns="http://www.w3.org/2000/svg" xml:space="preserve" height="100" width="100" version="1.2" y="0px" x="0px" xmlns:cc="http://creativecommons.org/ns#" xmlns:dc="http://purl.org/dc/elements/1.1/" viewBox="0 0 100 100"><g transform="translate(.69546 .12578)"><path d="m94.5 29.3c-3.9-4-14.6-2.5-19.3-1.6-2.6 0-5 0.6-7.1 1.4l1.5-1.6c2.6-0.9 15.9-5.6 17.3-12.1 0.5-2.1-0.3-4.1-2.3-6-2.4-2.2-4.6-2.2-6-1.8-6.3 1.9-10.2 15.5-10.9 18.1l-4 4.4 0.3-2.4c0.1-1.1 0-2.4-0.2-3.8v-0.1-0.1c-0.1-1.7-0.8-17-6.9-20.3-1.9-1-4.1-0.8-6.4 0.6-2.8 1.7-3.3 3.8-3.3 5.2 0.1 6.4 11.3 13.5 14.2 15.3 0.6 3.7-0.4 6.9-1 8.6-2.5-1.5-5.6-1.5-8.1-0.2-0.1-0.2-0.1-0.3-0.2-0.5-0.9-2-2.6-3.5-4.6-4.2-1.7-0.6-3.4-0.6-5.1-0.2l-2.4-5.2c0.2-2.3 1-16.9-4.6-20.8-1.8-1.2-4-1.3-6.4-0.1-3 1.4-3.7 3.4-3.9 4.8-0.6 6.4 10 14.9 12.5 16.8l2.5 5.5c-0.9 0.6-1.7 1.4-2.2 2.2-1-0.5-2.1-0.9-3.3-1-0.5-1.3-1.7-3.8-3.9-6.2-0.8-0.8-1.7-1.7-2.8-2.5 0 0-0.1 0-0.1-0.1 0 0 0-0.1-0.1-0.1-1.4-0.9-12.7-11.2-19.3-9.2-2.1 0.6-3.5 2.3-4.1 4.9-0.8 3.2 0.3 5 1.4 6.1 1.9 1.8 5.2 2.4 8.7 2.4 4.9 0 10.2-1.2 12.1-1.7 3 2.2 4.6 5.1 5.4 6.8-3.7 0.9-6.4 4.3-6.2 8.3 0 0.8 0.2 1.7 0.5 2.7h38.1c0.1-0.6 0.2-1.2 0.1-1.8-0.1-1.7-0.7-3.4-1.7-4.7 1.6-1.4 5.2-4.1 10.1-4.9 1.5 1.4 10.6 10.1 17.2 10.1 0.6 0 1.1-0.1 1.7-0.2 2.1-0.6 3.5-2.2 4.2-4.8 0.6-3.1-0.4-5-1.4-6z"/><path d="m81.303 44.2h-16.7-36.4-10.9c-2.3 0-4.2 1.9-4.2 4.2v46.1c0 2.3 1.9 4.2 4.2 4.2h64c2.3 0 4.2-1.9 4.2-4.2v-46.1c0.1-2.3-1.8-4.2-4.2-4.2zm-55.1 47.6c0 0.7-0.6 1.2-1.2 1.2s-1.2-0.6-1.2-1.2v-19.4c0-0.7 0.6-1.2 1.2-1.2s1.2 0.6 1.2 1.2v19.4zm8.1 0c0 0.7-0.6 1.2-1.2 1.2-0.7 0-1.2-0.6-1.2-1.2v-19.4c0-0.7 0.6-1.2 1.2-1.2 0.7 0 1.2 0.6 1.2 1.2v19.4zm8.1 0c0 0.7-0.6 1.2-1.2 1.2s-1.2-0.6-1.2-1.2v-19.4c0-0.7 0.6-1.2 1.2-1.2s1.2 0.6 1.2 1.2v19.4zm8.2 0c0 0.7-0.6 1.2-1.2 1.2s-1.2-0.6-1.2-1.2v-19.4c0-0.7 0.6-1.2 1.2-1.2s1.2 0.6 1.2 1.2v19.4zm8.1 0c0 0.7-0.6 1.2-1.2 1.2s-1.2-0.6-1.2-1.2v-19.4c0-0.7 0.6-1.2 1.2-1.2s1.2 0.6 1.2 1.2v19.4zm4.1-33.1c0 2.3-1.9 4.2-4.2 4.2h-18.5c-2.3 0-4.2-1.9-4.2-4.2v-2.1c0-2.3 1.9-4.2 4.2-4.2h18.4c2.3 0 4.2 1.9 4.2 4.2v2.1zm4.1 33.1c0 0.7-0.6 1.2-1.2 1.2-0.7 0-1.3-0.6-1.3-1.2v-19.4c0-0.7 0.6-1.2 1.3-1.2s1.2 0.6 1.2 1.2v19.4zm8.1 0c0 0.7-0.6 1.2-1.2 1.2s-1.2-0.6-1.2-1.2v-19.4c0-0.7 0.6-1.2 1.2-1.2s1.2 0.6 1.2 1.2v19.4z"/></g></svg>
